<mxfile host="app.diagrams.net" agent="Mozilla/5.0 (Windows NT 10.0; Win64; x64) AppleWebKit/537.36 (KHTML, like Gecko) Chrome/137.0.0.0 Safari/537.36" version="27.1.6">
  <diagram name="Page-1" id="vknJ0HSC49CURDl3-mdx">
    <mxGraphModel dx="2575" dy="620" grid="1" gridSize="10" guides="1" tooltips="1" connect="1" arrows="1" fold="1" page="1" pageScale="1" pageWidth="850" pageHeight="1100" math="0" shadow="0">
      <root>
        <mxCell id="0" />
        <mxCell id="1" parent="0" />
        <mxCell id="K1OXzFgDzaIbVZVbNI_d-1" value="employee" style="rounded=0;whiteSpace=wrap;html=1;" vertex="1" parent="1">
          <mxGeometry x="170" y="180" width="90" height="40" as="geometry" />
        </mxCell>
        <mxCell id="K1OXzFgDzaIbVZVbNI_d-10" style="edgeStyle=orthogonalEdgeStyle;rounded=0;orthogonalLoop=1;jettySize=auto;html=1;exitX=0.5;exitY=1;exitDx=0;exitDy=0;entryX=0;entryY=0.75;entryDx=0;entryDy=0;" edge="1" parent="1" source="K1OXzFgDzaIbVZVbNI_d-2" target="K1OXzFgDzaIbVZVbNI_d-1">
          <mxGeometry relative="1" as="geometry" />
        </mxCell>
        <mxCell id="K1OXzFgDzaIbVZVbNI_d-2" value="ssn" style="ellipse;whiteSpace=wrap;html=1;" vertex="1" parent="1">
          <mxGeometry x="100" y="140" width="80" height="20" as="geometry" />
        </mxCell>
        <mxCell id="K1OXzFgDzaIbVZVbNI_d-3" value="birth_date" style="ellipse;whiteSpace=wrap;html=1;" vertex="1" parent="1">
          <mxGeometry x="70" y="230" width="80" height="20" as="geometry" />
        </mxCell>
        <mxCell id="K1OXzFgDzaIbVZVbNI_d-4" value="name" style="ellipse;whiteSpace=wrap;html=1;" vertex="1" parent="1">
          <mxGeometry x="175" y="260" width="80" height="20" as="geometry" />
        </mxCell>
        <mxCell id="K1OXzFgDzaIbVZVbNI_d-9" style="edgeStyle=orthogonalEdgeStyle;rounded=0;orthogonalLoop=1;jettySize=auto;html=1;exitX=0.5;exitY=1;exitDx=0;exitDy=0;" edge="1" parent="1" source="K1OXzFgDzaIbVZVbNI_d-5" target="K1OXzFgDzaIbVZVbNI_d-1">
          <mxGeometry relative="1" as="geometry" />
        </mxCell>
        <mxCell id="K1OXzFgDzaIbVZVbNI_d-5" value="gender" style="ellipse;whiteSpace=wrap;html=1;" vertex="1" parent="1">
          <mxGeometry x="220" y="120" width="80" height="20" as="geometry" />
        </mxCell>
        <mxCell id="K1OXzFgDzaIbVZVbNI_d-6" value="last_name" style="ellipse;whiteSpace=wrap;html=1;" vertex="1" parent="1">
          <mxGeometry x="240" y="310" width="80" height="20" as="geometry" />
        </mxCell>
        <mxCell id="K1OXzFgDzaIbVZVbNI_d-7" value="first_name" style="ellipse;whiteSpace=wrap;html=1;" vertex="1" parent="1">
          <mxGeometry x="120" y="310" width="80" height="20" as="geometry" />
        </mxCell>
        <mxCell id="K1OXzFgDzaIbVZVbNI_d-11" style="edgeStyle=orthogonalEdgeStyle;rounded=0;orthogonalLoop=1;jettySize=auto;html=1;exitX=1;exitY=0.5;exitDx=0;exitDy=0;entryX=0.582;entryY=1.03;entryDx=0;entryDy=0;entryPerimeter=0;" edge="1" parent="1" source="K1OXzFgDzaIbVZVbNI_d-3" target="K1OXzFgDzaIbVZVbNI_d-1">
          <mxGeometry relative="1" as="geometry">
            <Array as="points">
              <mxPoint x="150" y="230" />
              <mxPoint x="222" y="230" />
            </Array>
          </mxGeometry>
        </mxCell>
        <mxCell id="K1OXzFgDzaIbVZVbNI_d-12" style="edgeStyle=orthogonalEdgeStyle;rounded=0;orthogonalLoop=1;jettySize=auto;html=1;exitX=0.5;exitY=0;exitDx=0;exitDy=0;entryX=0.889;entryY=1;entryDx=0;entryDy=0;entryPerimeter=0;" edge="1" parent="1" source="K1OXzFgDzaIbVZVbNI_d-4" target="K1OXzFgDzaIbVZVbNI_d-1">
          <mxGeometry relative="1" as="geometry" />
        </mxCell>
        <mxCell id="K1OXzFgDzaIbVZVbNI_d-13" style="edgeStyle=orthogonalEdgeStyle;rounded=0;orthogonalLoop=1;jettySize=auto;html=1;exitX=0.5;exitY=0;exitDx=0;exitDy=0;entryX=0.663;entryY=1.02;entryDx=0;entryDy=0;entryPerimeter=0;" edge="1" parent="1" source="K1OXzFgDzaIbVZVbNI_d-6" target="K1OXzFgDzaIbVZVbNI_d-4">
          <mxGeometry relative="1" as="geometry" />
        </mxCell>
        <mxCell id="K1OXzFgDzaIbVZVbNI_d-14" style="edgeStyle=orthogonalEdgeStyle;rounded=0;orthogonalLoop=1;jettySize=auto;html=1;exitX=0.5;exitY=0;exitDx=0;exitDy=0;entryX=0.423;entryY=0.98;entryDx=0;entryDy=0;entryPerimeter=0;" edge="1" parent="1" source="K1OXzFgDzaIbVZVbNI_d-7" target="K1OXzFgDzaIbVZVbNI_d-4">
          <mxGeometry relative="1" as="geometry" />
        </mxCell>
        <mxCell id="K1OXzFgDzaIbVZVbNI_d-15" value="department" style="rounded=0;whiteSpace=wrap;html=1;" vertex="1" parent="1">
          <mxGeometry x="540" y="160" width="90" height="40" as="geometry" />
        </mxCell>
        <mxCell id="K1OXzFgDzaIbVZVbNI_d-16" style="edgeStyle=orthogonalEdgeStyle;rounded=0;orthogonalLoop=1;jettySize=auto;html=1;exitX=0.5;exitY=1;exitDx=0;exitDy=0;entryX=0;entryY=0.75;entryDx=0;entryDy=0;" edge="1" parent="1" source="K1OXzFgDzaIbVZVbNI_d-17" target="K1OXzFgDzaIbVZVbNI_d-15">
          <mxGeometry relative="1" as="geometry" />
        </mxCell>
        <mxCell id="K1OXzFgDzaIbVZVbNI_d-17" value="dname" style="ellipse;whiteSpace=wrap;html=1;" vertex="1" parent="1">
          <mxGeometry x="470" y="120" width="80" height="20" as="geometry" />
        </mxCell>
        <mxCell id="K1OXzFgDzaIbVZVbNI_d-18" value="locations" style="ellipse;whiteSpace=wrap;html=1;" vertex="1" parent="1">
          <mxGeometry x="560" y="240" width="80" height="20" as="geometry" />
        </mxCell>
        <mxCell id="K1OXzFgDzaIbVZVbNI_d-20" style="edgeStyle=orthogonalEdgeStyle;rounded=0;orthogonalLoop=1;jettySize=auto;html=1;exitX=0.5;exitY=1;exitDx=0;exitDy=0;" edge="1" parent="1" source="K1OXzFgDzaIbVZVbNI_d-21" target="K1OXzFgDzaIbVZVbNI_d-15">
          <mxGeometry relative="1" as="geometry" />
        </mxCell>
        <mxCell id="K1OXzFgDzaIbVZVbNI_d-21" value="&lt;u&gt;dnum&lt;/u&gt;" style="ellipse;whiteSpace=wrap;html=1;" vertex="1" parent="1">
          <mxGeometry x="590" y="100" width="80" height="20" as="geometry" />
        </mxCell>
        <mxCell id="K1OXzFgDzaIbVZVbNI_d-28" style="edgeStyle=orthogonalEdgeStyle;rounded=0;orthogonalLoop=1;jettySize=auto;html=1;exitX=0.5;exitY=0;exitDx=0;exitDy=0;entryX=0.587;entryY=0.95;entryDx=0;entryDy=0;entryPerimeter=0;" edge="1" parent="1" source="K1OXzFgDzaIbVZVbNI_d-18" target="K1OXzFgDzaIbVZVbNI_d-15">
          <mxGeometry relative="1" as="geometry" />
        </mxCell>
        <mxCell id="K1OXzFgDzaIbVZVbNI_d-29" value="project" style="rounded=0;whiteSpace=wrap;html=1;" vertex="1" parent="1">
          <mxGeometry x="575" y="360" width="90" height="40" as="geometry" />
        </mxCell>
        <mxCell id="K1OXzFgDzaIbVZVbNI_d-30" style="edgeStyle=orthogonalEdgeStyle;rounded=0;orthogonalLoop=1;jettySize=auto;html=1;exitX=0.5;exitY=1;exitDx=0;exitDy=0;entryX=0;entryY=0.75;entryDx=0;entryDy=0;" edge="1" parent="1" source="K1OXzFgDzaIbVZVbNI_d-31" target="K1OXzFgDzaIbVZVbNI_d-29">
          <mxGeometry relative="1" as="geometry" />
        </mxCell>
        <mxCell id="K1OXzFgDzaIbVZVbNI_d-31" value="pname" style="ellipse;whiteSpace=wrap;html=1;" vertex="1" parent="1">
          <mxGeometry x="505" y="320" width="80" height="20" as="geometry" />
        </mxCell>
        <mxCell id="K1OXzFgDzaIbVZVbNI_d-32" value="location" style="ellipse;whiteSpace=wrap;html=1;" vertex="1" parent="1">
          <mxGeometry x="475" y="410" width="80" height="20" as="geometry" />
        </mxCell>
        <mxCell id="K1OXzFgDzaIbVZVbNI_d-34" style="edgeStyle=orthogonalEdgeStyle;rounded=0;orthogonalLoop=1;jettySize=auto;html=1;exitX=0.5;exitY=1;exitDx=0;exitDy=0;" edge="1" parent="1" source="K1OXzFgDzaIbVZVbNI_d-35" target="K1OXzFgDzaIbVZVbNI_d-29">
          <mxGeometry relative="1" as="geometry" />
        </mxCell>
        <mxCell id="K1OXzFgDzaIbVZVbNI_d-35" value="&lt;u&gt;pnumber&lt;/u&gt;" style="ellipse;whiteSpace=wrap;html=1;" vertex="1" parent="1">
          <mxGeometry x="625" y="300" width="80" height="20" as="geometry" />
        </mxCell>
        <mxCell id="K1OXzFgDzaIbVZVbNI_d-38" style="edgeStyle=orthogonalEdgeStyle;rounded=0;orthogonalLoop=1;jettySize=auto;html=1;exitX=1;exitY=0.5;exitDx=0;exitDy=0;entryX=0.582;entryY=1.03;entryDx=0;entryDy=0;entryPerimeter=0;" edge="1" parent="1" source="K1OXzFgDzaIbVZVbNI_d-32" target="K1OXzFgDzaIbVZVbNI_d-29">
          <mxGeometry relative="1" as="geometry">
            <Array as="points">
              <mxPoint x="555" y="410" />
              <mxPoint x="627" y="410" />
            </Array>
          </mxGeometry>
        </mxCell>
        <mxCell id="K1OXzFgDzaIbVZVbNI_d-43" style="edgeStyle=orthogonalEdgeStyle;rounded=0;orthogonalLoop=1;jettySize=auto;html=1;exitX=1;exitY=0.5;exitDx=0;exitDy=0;entryX=0.393;entryY=-0.03;entryDx=0;entryDy=0;entryPerimeter=0;shape=link;" edge="1" parent="1" source="K1OXzFgDzaIbVZVbNI_d-42" target="K1OXzFgDzaIbVZVbNI_d-29">
          <mxGeometry relative="1" as="geometry">
            <mxPoint x="550" y="300" as="targetPoint" />
            <Array as="points">
              <mxPoint x="440" y="280" />
              <mxPoint x="590" y="280" />
              <mxPoint x="590" y="359" />
            </Array>
          </mxGeometry>
        </mxCell>
        <mxCell id="K1OXzFgDzaIbVZVbNI_d-82" value="m" style="edgeLabel;html=1;align=center;verticalAlign=middle;resizable=0;points=[];" vertex="1" connectable="0" parent="K1OXzFgDzaIbVZVbNI_d-43">
          <mxGeometry x="-0.2473" relative="1" as="geometry">
            <mxPoint as="offset" />
          </mxGeometry>
        </mxCell>
        <mxCell id="K1OXzFgDzaIbVZVbNI_d-44" style="edgeStyle=orthogonalEdgeStyle;rounded=0;orthogonalLoop=1;jettySize=auto;html=1;exitX=0;exitY=0.5;exitDx=0;exitDy=0;entryX=1;entryY=0.5;entryDx=0;entryDy=0;" edge="1" parent="1" source="K1OXzFgDzaIbVZVbNI_d-42" target="K1OXzFgDzaIbVZVbNI_d-1">
          <mxGeometry relative="1" as="geometry" />
        </mxCell>
        <mxCell id="K1OXzFgDzaIbVZVbNI_d-80" value="m" style="edgeLabel;html=1;align=center;verticalAlign=middle;resizable=0;points=[];" vertex="1" connectable="0" parent="K1OXzFgDzaIbVZVbNI_d-44">
          <mxGeometry x="0.0596" y="1" relative="1" as="geometry">
            <mxPoint y="1" as="offset" />
          </mxGeometry>
        </mxCell>
        <mxCell id="K1OXzFgDzaIbVZVbNI_d-71" style="edgeStyle=orthogonalEdgeStyle;rounded=0;orthogonalLoop=1;jettySize=auto;html=1;exitX=0.5;exitY=1;exitDx=0;exitDy=0;entryX=0.5;entryY=0;entryDx=0;entryDy=0;" edge="1" parent="1" source="K1OXzFgDzaIbVZVbNI_d-42" target="K1OXzFgDzaIbVZVbNI_d-70">
          <mxGeometry relative="1" as="geometry" />
        </mxCell>
        <mxCell id="K1OXzFgDzaIbVZVbNI_d-42" value="work" style="rhombus;whiteSpace=wrap;html=1;" vertex="1" parent="1">
          <mxGeometry x="360" y="230" width="80" height="40" as="geometry" />
        </mxCell>
        <mxCell id="K1OXzFgDzaIbVZVbNI_d-46" style="edgeStyle=orthogonalEdgeStyle;rounded=0;orthogonalLoop=1;jettySize=auto;html=1;exitX=0.5;exitY=1;exitDx=0;exitDy=0;entryX=0;entryY=0.75;entryDx=0;entryDy=0;" edge="1" parent="1" source="K1OXzFgDzaIbVZVbNI_d-47">
          <mxGeometry relative="1" as="geometry">
            <mxPoint x="170" y="480" as="targetPoint" />
          </mxGeometry>
        </mxCell>
        <mxCell id="K1OXzFgDzaIbVZVbNI_d-47" value="&lt;u&gt;name&lt;/u&gt;" style="ellipse;whiteSpace=wrap;html=1;" vertex="1" parent="1">
          <mxGeometry x="100" y="410" width="80" height="20" as="geometry" />
        </mxCell>
        <mxCell id="K1OXzFgDzaIbVZVbNI_d-48" value="birth_date" style="ellipse;whiteSpace=wrap;html=1;" vertex="1" parent="1">
          <mxGeometry x="70" y="500" width="80" height="20" as="geometry" />
        </mxCell>
        <mxCell id="K1OXzFgDzaIbVZVbNI_d-50" style="edgeStyle=orthogonalEdgeStyle;rounded=0;orthogonalLoop=1;jettySize=auto;html=1;exitX=0.5;exitY=1;exitDx=0;exitDy=0;" edge="1" parent="1" source="K1OXzFgDzaIbVZVbNI_d-51">
          <mxGeometry relative="1" as="geometry">
            <mxPoint x="215" y="450" as="targetPoint" />
          </mxGeometry>
        </mxCell>
        <mxCell id="K1OXzFgDzaIbVZVbNI_d-51" value="gender" style="ellipse;whiteSpace=wrap;html=1;" vertex="1" parent="1">
          <mxGeometry x="220" y="390" width="80" height="20" as="geometry" />
        </mxCell>
        <mxCell id="K1OXzFgDzaIbVZVbNI_d-54" style="edgeStyle=orthogonalEdgeStyle;rounded=0;orthogonalLoop=1;jettySize=auto;html=1;exitX=1;exitY=0.5;exitDx=0;exitDy=0;entryX=0.582;entryY=1.03;entryDx=0;entryDy=0;entryPerimeter=0;" edge="1" parent="1" source="K1OXzFgDzaIbVZVbNI_d-48">
          <mxGeometry relative="1" as="geometry">
            <Array as="points">
              <mxPoint x="150" y="500" />
              <mxPoint x="222" y="500" />
            </Array>
            <mxPoint x="222.3800000000001" y="491.20000000000005" as="targetPoint" />
          </mxGeometry>
        </mxCell>
        <mxCell id="K1OXzFgDzaIbVZVbNI_d-63" value="dependent" style="shape=ext;double=1;rounded=0;whiteSpace=wrap;html=1;" vertex="1" parent="1">
          <mxGeometry x="175" y="450" width="120" height="40" as="geometry" />
        </mxCell>
        <mxCell id="K1OXzFgDzaIbVZVbNI_d-65" style="edgeStyle=orthogonalEdgeStyle;rounded=0;orthogonalLoop=1;jettySize=auto;html=1;exitX=1;exitY=0.5;exitDx=0;exitDy=0;entryX=0;entryY=0.25;entryDx=0;entryDy=0;shape=link;" edge="1" parent="1" source="K1OXzFgDzaIbVZVbNI_d-64" target="K1OXzFgDzaIbVZVbNI_d-15">
          <mxGeometry relative="1" as="geometry">
            <Array as="points">
              <mxPoint x="470" y="105" />
              <mxPoint x="470" y="170" />
            </Array>
          </mxGeometry>
        </mxCell>
        <mxCell id="K1OXzFgDzaIbVZVbNI_d-91" value="1" style="edgeLabel;html=1;align=center;verticalAlign=middle;resizable=0;points=[];" vertex="1" connectable="0" parent="K1OXzFgDzaIbVZVbNI_d-65">
          <mxGeometry x="0.0087" y="1" relative="1" as="geometry">
            <mxPoint as="offset" />
          </mxGeometry>
        </mxCell>
        <mxCell id="K1OXzFgDzaIbVZVbNI_d-66" style="edgeStyle=orthogonalEdgeStyle;rounded=0;orthogonalLoop=1;jettySize=auto;html=1;exitX=0;exitY=0.5;exitDx=0;exitDy=0;entryX=1;entryY=0.25;entryDx=0;entryDy=0;" edge="1" parent="1" source="K1OXzFgDzaIbVZVbNI_d-64" target="K1OXzFgDzaIbVZVbNI_d-1">
          <mxGeometry relative="1" as="geometry" />
        </mxCell>
        <mxCell id="K1OXzFgDzaIbVZVbNI_d-88" value="1" style="edgeLabel;html=1;align=center;verticalAlign=middle;resizable=0;points=[];" vertex="1" connectable="0" parent="K1OXzFgDzaIbVZVbNI_d-66">
          <mxGeometry x="-0.0349" y="-1" relative="1" as="geometry">
            <mxPoint as="offset" />
          </mxGeometry>
        </mxCell>
        <mxCell id="K1OXzFgDzaIbVZVbNI_d-90" style="edgeStyle=orthogonalEdgeStyle;rounded=0;orthogonalLoop=1;jettySize=auto;html=1;exitX=0.5;exitY=0;exitDx=0;exitDy=0;entryX=0.5;entryY=1;entryDx=0;entryDy=0;" edge="1" parent="1" source="K1OXzFgDzaIbVZVbNI_d-64" target="K1OXzFgDzaIbVZVbNI_d-89">
          <mxGeometry relative="1" as="geometry" />
        </mxCell>
        <mxCell id="K1OXzFgDzaIbVZVbNI_d-64" value="mange" style="rhombus;whiteSpace=wrap;html=1;" vertex="1" parent="1">
          <mxGeometry x="360" y="80" width="80" height="50" as="geometry" />
        </mxCell>
        <mxCell id="K1OXzFgDzaIbVZVbNI_d-68" style="edgeStyle=orthogonalEdgeStyle;rounded=0;orthogonalLoop=1;jettySize=auto;html=1;exitX=0;exitY=0.5;exitDx=0;exitDy=0;entryX=1;entryY=0.5;entryDx=0;entryDy=0;" edge="1" parent="1" source="K1OXzFgDzaIbVZVbNI_d-67" target="K1OXzFgDzaIbVZVbNI_d-15">
          <mxGeometry relative="1" as="geometry" />
        </mxCell>
        <mxCell id="K1OXzFgDzaIbVZVbNI_d-98" value="1" style="edgeLabel;html=1;align=center;verticalAlign=middle;resizable=0;points=[];" vertex="1" connectable="0" parent="K1OXzFgDzaIbVZVbNI_d-68">
          <mxGeometry x="0.0199" relative="1" as="geometry">
            <mxPoint as="offset" />
          </mxGeometry>
        </mxCell>
        <mxCell id="K1OXzFgDzaIbVZVbNI_d-69" style="edgeStyle=orthogonalEdgeStyle;rounded=0;orthogonalLoop=1;jettySize=auto;html=1;exitX=0.5;exitY=1;exitDx=0;exitDy=0;entryX=1;entryY=0.5;entryDx=0;entryDy=0;shape=link;" edge="1" parent="1" source="K1OXzFgDzaIbVZVbNI_d-67" target="K1OXzFgDzaIbVZVbNI_d-29">
          <mxGeometry relative="1" as="geometry" />
        </mxCell>
        <mxCell id="K1OXzFgDzaIbVZVbNI_d-97" value="m" style="edgeLabel;html=1;align=center;verticalAlign=middle;resizable=0;points=[];" vertex="1" connectable="0" parent="K1OXzFgDzaIbVZVbNI_d-69">
          <mxGeometry x="0.5089" y="-2" relative="1" as="geometry">
            <mxPoint x="1" as="offset" />
          </mxGeometry>
        </mxCell>
        <mxCell id="K1OXzFgDzaIbVZVbNI_d-67" value="have" style="rhombus;whiteSpace=wrap;html=1;" vertex="1" parent="1">
          <mxGeometry x="720" y="230" width="80" height="40" as="geometry" />
        </mxCell>
        <mxCell id="K1OXzFgDzaIbVZVbNI_d-70" value="work_hours" style="ellipse;whiteSpace=wrap;html=1;" vertex="1" parent="1">
          <mxGeometry x="350" y="305" width="100" height="30" as="geometry" />
        </mxCell>
        <mxCell id="K1OXzFgDzaIbVZVbNI_d-74" style="edgeStyle=orthogonalEdgeStyle;rounded=0;orthogonalLoop=1;jettySize=auto;html=1;exitX=0.5;exitY=1;exitDx=0;exitDy=0;entryX=0.25;entryY=0;entryDx=0;entryDy=0;" edge="1" parent="1" source="K1OXzFgDzaIbVZVbNI_d-72" target="K1OXzFgDzaIbVZVbNI_d-1">
          <mxGeometry relative="1" as="geometry">
            <Array as="points">
              <mxPoint x="170" y="90" />
              <mxPoint x="170" y="135" />
              <mxPoint x="193" y="135" />
            </Array>
          </mxGeometry>
        </mxCell>
        <mxCell id="K1OXzFgDzaIbVZVbNI_d-101" value="1" style="edgeLabel;html=1;align=center;verticalAlign=middle;resizable=0;points=[];" vertex="1" connectable="0" parent="K1OXzFgDzaIbVZVbNI_d-74">
          <mxGeometry x="-0.0959" y="-2" relative="1" as="geometry">
            <mxPoint y="1" as="offset" />
          </mxGeometry>
        </mxCell>
        <mxCell id="K1OXzFgDzaIbVZVbNI_d-72" value="supervise" style="rhombus;whiteSpace=wrap;html=1;" vertex="1" parent="1">
          <mxGeometry x="80" y="40" width="80" height="50" as="geometry" />
        </mxCell>
        <mxCell id="K1OXzFgDzaIbVZVbNI_d-73" style="edgeStyle=orthogonalEdgeStyle;rounded=0;orthogonalLoop=1;jettySize=auto;html=1;exitX=1;exitY=0.5;exitDx=0;exitDy=0;entryX=0.367;entryY=0.029;entryDx=0;entryDy=0;entryPerimeter=0;" edge="1" parent="1" source="K1OXzFgDzaIbVZVbNI_d-72" target="K1OXzFgDzaIbVZVbNI_d-1">
          <mxGeometry relative="1" as="geometry" />
        </mxCell>
        <mxCell id="K1OXzFgDzaIbVZVbNI_d-76" style="edgeStyle=orthogonalEdgeStyle;rounded=0;orthogonalLoop=1;jettySize=auto;html=1;exitX=0.5;exitY=0;exitDx=0;exitDy=0;entryX=0;entryY=0.5;entryDx=0;entryDy=0;" edge="1" parent="1" source="K1OXzFgDzaIbVZVbNI_d-75" target="K1OXzFgDzaIbVZVbNI_d-1">
          <mxGeometry relative="1" as="geometry" />
        </mxCell>
        <mxCell id="K1OXzFgDzaIbVZVbNI_d-83" value="1" style="edgeLabel;html=1;align=center;verticalAlign=middle;resizable=0;points=[];" vertex="1" connectable="0" parent="K1OXzFgDzaIbVZVbNI_d-76">
          <mxGeometry x="0.3909" relative="1" as="geometry">
            <mxPoint as="offset" />
          </mxGeometry>
        </mxCell>
        <mxCell id="K1OXzFgDzaIbVZVbNI_d-77" style="edgeStyle=orthogonalEdgeStyle;rounded=0;orthogonalLoop=1;jettySize=auto;html=1;exitX=0.5;exitY=1;exitDx=0;exitDy=0;shape=link;" edge="1" parent="1" source="K1OXzFgDzaIbVZVbNI_d-75" target="K1OXzFgDzaIbVZVbNI_d-63">
          <mxGeometry relative="1" as="geometry">
            <Array as="points">
              <mxPoint x="-10" y="390" />
              <mxPoint x="200" y="390" />
            </Array>
          </mxGeometry>
        </mxCell>
        <mxCell id="K1OXzFgDzaIbVZVbNI_d-87" value="m" style="edgeLabel;html=1;align=center;verticalAlign=middle;resizable=0;points=[];" vertex="1" connectable="0" parent="K1OXzFgDzaIbVZVbNI_d-77">
          <mxGeometry x="-0.1051" y="2" relative="1" as="geometry">
            <mxPoint as="offset" />
          </mxGeometry>
        </mxCell>
        <mxCell id="K1OXzFgDzaIbVZVbNI_d-75" value="have" style="rhombus;whiteSpace=wrap;html=1;" vertex="1" parent="1">
          <mxGeometry x="-50" y="320" width="80" height="50" as="geometry" />
        </mxCell>
        <mxCell id="K1OXzFgDzaIbVZVbNI_d-89" value="hiring_date" style="ellipse;whiteSpace=wrap;html=1;" vertex="1" parent="1">
          <mxGeometry x="350" y="20" width="100" height="30" as="geometry" />
        </mxCell>
        <mxCell id="K1OXzFgDzaIbVZVbNI_d-93" style="edgeStyle=orthogonalEdgeStyle;rounded=0;orthogonalLoop=1;jettySize=auto;html=1;exitX=1;exitY=0.5;exitDx=0;exitDy=0;entryX=0;entryY=0.5;entryDx=0;entryDy=0;" edge="1" parent="1" source="K1OXzFgDzaIbVZVbNI_d-92" target="K1OXzFgDzaIbVZVbNI_d-15">
          <mxGeometry relative="1" as="geometry" />
        </mxCell>
        <mxCell id="K1OXzFgDzaIbVZVbNI_d-95" value="1" style="edgeLabel;html=1;align=center;verticalAlign=middle;resizable=0;points=[];" vertex="1" connectable="0" parent="K1OXzFgDzaIbVZVbNI_d-93">
          <mxGeometry x="-0.5604" y="1" relative="1" as="geometry">
            <mxPoint x="-1" as="offset" />
          </mxGeometry>
        </mxCell>
        <mxCell id="K1OXzFgDzaIbVZVbNI_d-94" style="edgeStyle=orthogonalEdgeStyle;rounded=0;orthogonalLoop=1;jettySize=auto;html=1;exitX=0;exitY=0.5;exitDx=0;exitDy=0;entryX=1;entryY=0.75;entryDx=0;entryDy=0;shape=link;" edge="1" parent="1" source="K1OXzFgDzaIbVZVbNI_d-92" target="K1OXzFgDzaIbVZVbNI_d-1">
          <mxGeometry relative="1" as="geometry">
            <Array as="points">
              <mxPoint x="340" y="180" />
              <mxPoint x="340" y="210" />
            </Array>
          </mxGeometry>
        </mxCell>
        <mxCell id="K1OXzFgDzaIbVZVbNI_d-96" value="m" style="edgeLabel;html=1;align=center;verticalAlign=middle;resizable=0;points=[];" vertex="1" connectable="0" parent="K1OXzFgDzaIbVZVbNI_d-94">
          <mxGeometry x="-0.4869" y="1" relative="1" as="geometry">
            <mxPoint as="offset" />
          </mxGeometry>
        </mxCell>
        <mxCell id="K1OXzFgDzaIbVZVbNI_d-92" value="have" style="rhombus;whiteSpace=wrap;html=1;" vertex="1" parent="1">
          <mxGeometry x="360" y="160" width="70" height="40" as="geometry" />
        </mxCell>
      </root>
    </mxGraphModel>
  </diagram>
</mxfile>
